<?xml version="1.0" encoding="utf-8"?>
<!DOCTYPE svg PUBLIC "-//W3C//DTD SVG 1.0//EN" "http://www.w3.org/TR/2001/REC-SVG-20010904/DTD/svg10.dtd" [
	<!ENTITY st0 "fill:#5CA33F;">
]>
<svg version="1.0" id="Layer_1" xmlns="http://www.w3.org/2000/svg" xmlns:xlink="http://www.w3.org/1999/xlink" x="0px" y="0px"
	 width="320px" height="320px" viewBox="0 0 320 320" style="enable-background:new 0 0 320 320;" xml:space="preserve">
<path style="&st0;" d="M188.728,2h-57.455C60.173,2,2,60.173,2,131.272v57.455C2,259.826,60.173,318,131.272,318h57.455
	C259.826,318,318,259.826,318,188.728v-57.455C318,60.173,259.826,2,188.728,2z M214.775,138.838
	c1.479-22.527-13.582-22.45-29.801-6.653c-31.546,30.718-44.676,69.679-49,112.363c-0.538,5.313-0.718,10.66-1.065,16.025
	c-34.301-4.46-47.08-21.502-40.209-53.128c2.027-9.32,13.702-54.171,22.825-84.247c9.26-30.528,8.39-40.354,9.26-47.584
	c30.361,5.051,37.403,25.136,29.625,53.265c9.59-10.823,24.077-25.833,34.926-35.202c17.544-15.159,38.015-16.91,44.198-3.874
	C242.29,104.042,239,127.682,214.775,138.838z"/>
</svg>
