<?xml version="1.0" encoding="utf-8"?>
<!DOCTYPE svg PUBLIC "-//W3C//DTD SVG 1.0//EN" "http://www.w3.org/TR/2001/REC-SVG-20010904/DTD/svg10.dtd" [
	<!ENTITY st0 "fill:#5CA33F;">
]>
<svg version="1.0" id="Layer_1" xmlns="http://www.w3.org/2000/svg" xmlns:xlink="http://www.w3.org/1999/xlink" x="0px" y="0px"
	 width="320px" height="320px" viewBox="0 0 320 320" style="enable-background:new 0 0 320 320;" xml:space="preserve">
<path style="&st0;" d="M180.909,45h-41.818C87.341,45,45,87.341,45,139.091v41.818C45,232.658,87.341,275,139.091,275h41.818
	C232.658,275,275,232.658,275,180.909v-41.818C275,87.341,232.658,45,180.909,45z M199.868,144.598
	c1.076-16.396-9.886-16.34-21.69-4.843c-22.961,22.358-32.517,50.716-35.665,81.783c-0.392,3.867-0.522,7.759-0.775,11.664
	c-24.966-3.246-34.267-15.65-29.266-38.669c1.476-6.784,9.973-39.429,16.613-61.319c6.74-22.22,6.106-29.371,6.74-34.634
	c22.098,3.677,27.224,18.295,21.562,38.769c6.98-7.877,17.524-18.802,25.421-25.622c12.77-11.033,27.669-12.308,32.17-2.819
	C219.895,119.271,217.5,136.477,199.868,144.598z"/>
</svg>
