<?xml version="1.0" encoding="utf-8"?>
<!DOCTYPE svg PUBLIC "-//W3C//DTD SVG 1.0//EN" "http://www.w3.org/TR/2001/REC-SVG-20010904/DTD/svg10.dtd" [
	<!ENTITY st0 "fill:#28AAE2;">
]>
<svg version="1.0" id="Layer_1" xmlns="http://www.w3.org/2000/svg" xmlns:xlink="http://www.w3.org/1999/xlink" x="0px" y="0px"
	 width="320px" height="320px" viewBox="0 0 320 320" style="enable-background:new 0 0 320 320;" xml:space="preserve">
<path id="path2991" inkscape:connector-curvature="0" style="&st0;" d="M201.045,30.667c-28.96,10.426-47.263,37.301-45.178,66.725
	l0.695,11.353l-11.584-1.39c-42.167-5.329-79.004-23.4-110.281-53.75l-15.291-15.06l-3.938,11.121
	c-8.34,24.79-3.012,50.97,14.364,68.578c9.268,9.73,7.182,11.121-8.804,5.329c-5.561-1.854-10.426-3.244-10.889-2.548
	c-1.622,1.622,3.938,22.705,8.34,31.045c6.024,11.583,18.303,22.936,31.741,29.655l11.353,5.328l-13.438,0.231
	c-12.974,0-13.438,0.232-12.047,5.098c4.634,15.06,22.937,31.045,43.325,37.996l14.364,4.865l-12.511,7.413
	c-18.535,10.658-40.313,16.682-62.091,17.145c-10.426,0.232-18.998,1.159-18.998,1.854c0,2.317,28.265,15.291,44.715,20.389
	c49.348,15.06,107.964,8.572,151.983-17.145c31.277-18.303,62.555-54.678,77.15-89.893c7.877-18.766,15.754-53.055,15.754-69.504
	c0-10.657,0.695-12.047,13.67-24.79c7.646-7.414,14.827-15.522,16.218-17.839c2.316-4.402,2.085-4.402-9.73-0.463
	c-19.693,6.951-22.474,6.024-12.743-4.402c7.183-7.414,15.755-20.852,15.755-24.79c0-0.695-3.476,0.463-7.414,2.548
	c-4.17,2.317-13.438,5.792-20.388,7.877l-12.511,3.938l-11.353-7.646c-6.256-4.17-15.06-8.804-19.693-10.194
	C229.774,26.497,211.703,26.96,201.045,30.667z"/>
</svg>
